<?xml version="1.0" encoding="UTF-8"?><svg id="Layer_1" xmlns="http://www.w3.org/2000/svg" viewBox="0 0 288 288"><defs><style>.cls-1{fill:#ebe3d6;}.cls-2{fill:#fff;}</style></defs><path class="cls-1" d="M49.94,153.19c0-4.55,0-9.11,0-13.66,.13-.69,.28-1.38,.38-2.07,.8-5.19,1.19-10.48,2.44-15.56,8.29-33.79,28.13-58.57,59.24-74,20.6-10.22,42.55-13.18,65.21-9.32,28.36,4.83,51.48,18.81,68.92,41.67,18.25,23.92,25.27,51.08,21.4,80.88-2.85,21.96-11.88,41.27-26.64,57.77-16.83,18.82-37.72,30.57-62.6,35.07-4.04,.73-8.14,1.14-12.21,1.7h-13.66c-2.67-.33-5.34-.62-8-1-21.75-3.12-40.98-11.83-57.41-26.42-18.98-16.86-30.83-37.82-35.37-62.84-.73-4.04-1.14-8.14-1.7-12.21Zm109.2,42.84c18.57,0,37.14,.01,55.71,0,9.23,0,14.85-5.67,14.85-14.93,0-23.12,0-46.24,0-69.35,0-9.42-5.57-15.04-14.95-15.04-37,0-73.99,0-110.99,0-9.37,0-14.96,5.63-14.96,15.03,0,22.98,.18,45.95-.09,68.93-.1,8.67,5.94,15.61,15.36,15.46,18.35-.29,36.71-.09,55.06-.09Z"/><path class="cls-2" d="M159.13,196.03c-18.36,0-36.71-.21-55.06,.09-9.42,.15-15.47-6.79-15.36-15.46,.27-22.97,.09-45.95,.09-68.93,0-9.4,5.59-15.03,14.96-15.03,37,0,73.99,0,110.99,0,9.37,0,14.94,5.62,14.95,15.04,0,23.12,0,46.24,0,69.35,0,9.26-5.63,14.92-14.85,14.93-18.57,.02-37.14,0-55.71,0Zm59.13-82.22c-1.25,.99-2.09,1.64-2.92,2.3-17.27,13.71-34.53,27.42-51.81,41.13-3.1,2.46-5.45,2.48-8.45,.1-16.16-12.82-32.31-25.65-48.46-38.48-2.03-1.61-4.08-3.21-6.51-5.12,0,1.21,0,1.9,0,2.59,0,21.41,0,42.83,0,64.24,0,3.69,.51,4.21,4.17,4.21,36.64,0,73.29,0,109.93,0,3.64,0,4.15-.52,4.16-4.22,0-21.41,0-42.83,0-64.24,0-.68-.06-1.37-.11-2.5Zm-106.9-5.76c.56,.53,.79,.78,1.06,1,15.15,12.03,30.32,24.05,45.44,36.11,1.15,.92,1.83,.73,2.88-.1,14.91-11.88,29.85-23.72,44.78-35.58,.46-.37,.87-.8,1.55-1.43H111.37Z"/><path class="cls-1" d="M218.27,113.81c.05,1.14,.11,1.82,.11,2.5,0,21.41,0,42.83,0,64.24,0,3.7-.51,4.22-4.16,4.22-36.64,0-73.29,0-109.93,0-3.65,0-4.17-.51-4.17-4.21,0-21.41,0-42.83,0-64.24,0-.69,0-1.38,0-2.59,2.43,1.92,4.48,3.51,6.51,5.12,16.15,12.83,32.3,25.66,48.46,38.48,3,2.38,5.35,2.36,8.45-.1,17.27-13.71,34.54-27.42,51.81-41.13,.83-.66,1.66-1.31,2.92-2.3Z"/><path class="cls-1" d="M111.37,108.04h95.71c-.67,.63-1.08,1.06-1.55,1.43-14.93,11.86-29.87,23.7-44.78,35.58-1.05,.84-1.73,1.02-2.88,.1-15.12-12.07-30.29-24.08-45.44-36.11-.27-.21-.5-.47-1.06-1Z"/></svg>