<?xml version="1.0" encoding="UTF-8"?><svg id="Layer_1" xmlns="http://www.w3.org/2000/svg" viewBox="0 0 288 288"><defs><style>.cls-1{fill:#ebe3d6;}</style></defs><g id="QWGzSU"><path class="cls-1" d="M165.96,201.01c6.38-1.47,12.56-2.55,18.52-4.34,19.82-5.96,30.88-19.7,34.24-39.84,1.69-10.16,2.21-20.36-.84-30.43-1.75-5.79-4.53-11.05-8.47-15.63-1.18-1.38-1.49-2.49-.95-4.29,2.85-9.43,1.95-18.75-1.35-27.89-.33-.91-1.95-2.08-2.8-1.96-4,.57-8.19,.96-11.85,2.51-5.81,2.45-11.23,5.84-16.89,8.67-1.21,.61-2.87,1-4.14,.7-18.41-4.4-36.79-4.4-55.21-.05-1.35,.32-3.2,0-4.38-.72-7.94-4.89-15.96-9.52-25.37-11-5.09-.8-5.63-.51-7.03,4.35-2.49,8.65-2.93,17.33-.31,26.07,.25,.82,.04,2.14-.49,2.77-10.73,12.74-12.56,27.59-10.45,43.4,1.35,10.11,4.26,19.63,10.71,27.75,8.16,10.28,19.37,15.17,31.82,17.77,3.48,.73,7,1.21,10.85,1.87-4,4.33-6,9.24-7.04,14.64-.15,.79-1.12,1.7-1.93,2.04-13.25,5.69-25.15,1.87-32.85-10.46-3.98-6.37-9.23-11.05-16.87-12.38-1.45-.25-3.04-.15-4.49,.16-3.05,.65-3.44,2.25-1.19,4.51,.8,.8,1.67,1.58,2.64,2.15,6.01,3.5,10.31,8.73,12.42,15.08,4.63,13.93,18.26,19.93,32.86,18.52,2.8-.27,5.59-.68,8.82-1.07,0,7.8,.2,15.38-.08,22.93-.16,4.23-4.16,6.17-8.77,4.61-10.38-3.52-20.17-8.3-29.04-14.74-35.39-25.67-52.92-60.53-51.72-104.16,1.55-56.14,43.19-103.81,98.42-113.75,64.22-11.56,125.94,31.18,138.21,95.72,11.18,58.77-21.85,116.79-77.74,136.57-6.68,2.36-9.98,0-9.95-7.12,.05-9.96,.09-19.92,.17-29.88,.07-8.55-1.31-16.63-7.47-23.1Z"/></g></svg>