<?xml version="1.0" encoding="UTF-8"?><svg id="Layer_1" xmlns="http://www.w3.org/2000/svg" viewBox="0 0 288 288"><defs><style>.cls-1{fill:#ebe3d6;}</style></defs><path class="cls-1" d="M14,204.41c0-40.77,0-81.53,0-122.3,.4-2.6,.64-5.23,1.22-7.78,6.17-27.23,22.68-44.74,49.58-52.29,3.67-1.03,7.54-1.38,11.32-2.04,40.77,0,81.53,0,122.3,0,.78,.14,1.56,.32,2.35,.41,6.67,.69,13.19,2.17,19.23,5.02,26.12,12.33,40.07,33.01,40.42,61.9,.45,37.31,.13,74.62,.1,111.94,0,11.69-2.55,22.83-8.5,32.92-13.32,22.59-33.28,34.15-59.5,34.29-36.83,.19-73.66,.09-110.49,0-4.63-.01-9.37-.26-13.86-1.27-27.18-6.08-44.6-22.66-52.13-49.49-1.03-3.67-1.37-7.53-2.03-11.3Zm190.66-61.1c.06-37-30.28-67.39-67.35-67.45-37-.06-67.39,30.28-67.45,67.35-.06,37,30.28,67.39,67.35,67.45,37,.06,67.39-30.28,67.45-67.35Zm1.64-51.58c10.84-.03,19.94-9.14,19.9-19.93-.04-10.83-9.15-19.92-19.95-19.9-10.84,.02-19.89,9.1-19.88,19.94,.01,10.87,9.08,19.91,19.93,19.89Z"/><path class="cls-1" d="M137.29,90.31c29.13,.03,53,23.94,52.92,53.03-.08,29.16-24.03,53-53.09,52.86-29.09-.14-52.77-23.87-52.8-52.91-.03-29.1,23.86-53.01,52.97-52.98Z"/><path class="cls-1" d="M206.24,66.41c2.86-.03,5.39,2.44,5.46,5.32,.07,2.94-2.56,5.58-5.5,5.52-2.87-.06-5.36-2.6-5.35-5.45,.01-2.86,2.53-5.37,5.39-5.4Z"/></svg>