<?xml version="1.0" encoding="UTF-8"?><svg id="Layer_1" xmlns="http://www.w3.org/2000/svg" viewBox="0 0 288 288"><defs><style>.cls-1{fill:#ebe3d6;}</style></defs><path class="cls-1" d="M99.45,273V95.85h55.18v32.81c.31,.23,.61,.47,.92,.7,.23-.57,.34-1.24,.72-1.68,2.8-3.28,5.62-6.55,8.5-9.77,5.08-5.68,11.24-9.96,17.83-13.7,18.77-10.63,38.06-11.94,57.13-1.69,14.52,7.81,23.8,20.4,27.71,36.65,.69,2.88,1.19,5.8,1.77,8.71v125.13h-54.98c-.07-1.04-.2-2.07-.2-3.11-.01-34.93-.1-69.87,.09-104.8,.03-4.93-1.57-8.89-4.22-12.72-.41-.59-.86-1.16-1.26-1.76-2.72-4.06-6.49-6.33-11.38-6.61-7.21-.41-12.97,2.74-18.63,6.92-8.32,6.14-14.92,13.83-21.4,21.71-1.75,2.13-2.63,4.48-2.62,7.44,.12,29.94,.07,59.88,.08,89.83,0,1.03,.15,2.07,.23,3.1h-55.46Z"/><path class="cls-1" d="M22.28,273V95.86h55.22v3.32c0,56.83,0,113.65,0,170.48,0,1.11,.15,2.23,.23,3.34H22.28Z"/><path class="cls-1" d="M52.66,15c1.54,.41,3.09,.76,4.6,1.24,14.79,4.7,23.2,22.4,16.92,37.84-2.31,5.67-6.1,9.8-11.1,13.2-8.11,5.51-16.77,5.86-25.04,1.62-13.05-6.69-18.63-20.22-14.46-33.92,3.27-10.73,10.28-17.72,21.69-19.64,.22-.04,.42-.22,.62-.33,2.25,0,4.5,0,6.75,0Z"/></svg>