<?xml version="1.0" encoding="UTF-8"?><svg id="Layer_1" xmlns="http://www.w3.org/2000/svg" viewBox="0 0 288 288"><defs><style>.cls-1{fill:#ebe3d6;}.cls-2{fill:#fff;}</style></defs><path class="cls-1" d="M29,136.57c.04-67.02,55.14-121.93,123.3-120.7,65.25,1.17,118.92,54.59,118.7,121.52-.22,66.77-55.1,121.81-123.51,120.48-65.21-1.27-118.67-54.65-118.49-121.29Zm96.15-34.25c-.38-2.16-.41-3.45-.83-4.61-4.36-11.94-8.72-23.87-13.2-35.77-1.54-4.09-4.89-5.79-9.09-4.58-10.13,2.89-19.26,7.79-26.59,15.34-2.06,2.13-3.54,6.07-3.27,8.98,.85,8.87,2.03,17.82,4.24,26.44,13.9,54.24,45.62,94.5,95.34,120.5,4.23,2.21,8.21,2.22,12.36,.01,8.13-4.32,15.19-9.94,21.08-17.03,4.09-4.93,3.87-8.38-.89-12.63-5.85-5.22-11.67-10.46-17.59-15.59-15.22-13.21-11.04-13.58-31.62-7.94-.27,.07-.59,.03-.82,.15-2.26,1.21-3.79,.27-5.47-1.38-12.84-12.55-23.2-26.86-31.02-43.02q-4.74-9.79,1.46-18.41c1.06-1.48,2.3-2.85,3.16-4.44,1.16-2.14,2.04-4.44,2.76-6.04Zm97.96,28.63c-.02-.28-.02-.56-.07-.84-4.53-26.24-18.13-46.22-41.22-59.63-2.71-1.57-5.27-1.19-6.84,1.65-1.54,2.79-.5,4.95,2.13,6.72,4.4,2.97,8.94,5.83,12.89,9.33,13.18,11.65,20.82,26.43,23.6,43.74,.52,3.27,2.09,5.32,5.51,4.86,3.2-.43,4.24-2.8,3.99-5.84Zm-33.58,6.72c-.01-14.03-12.96-32.9-24.82-37.93-2.72-1.15-4.76-.31-6.09,1.94-1.49,2.54-.84,5.07,1.69,6.54,11.27,6.56,17.72,16.33,19.89,29.09,.52,3.04,2.71,4.58,5.44,3.7,1.81-.58,3.14-2.67,3.88-3.35Z"/><path class="cls-2" d="M125.15,102.32c-.71,1.59-1.59,3.89-2.76,6.04-.86,1.58-2.1,2.96-3.16,4.44q-6.2,8.62-1.46,18.41c7.82,16.15,18.17,30.47,31.02,43.02,1.69,1.65,3.22,2.58,5.47,1.38,.23-.13,.55-.08,.82-.15,20.58-5.64,16.4-5.27,31.62,7.94,5.92,5.14,11.74,10.38,17.59,15.59,4.76,4.25,4.98,7.7,.89,12.63-5.89,7.09-12.95,12.71-21.08,17.03-4.15,2.2-8.13,2.19-12.36-.01-49.71-25.99-81.44-66.26-95.34-120.5-2.21-8.62-3.4-17.57-4.24-26.44-.28-2.91,1.2-6.86,3.27-8.98,7.33-7.56,16.46-12.45,26.59-15.34,4.21-1.2,7.55,.49,9.09,4.58,4.48,11.89,8.85,23.83,13.2,35.77,.42,1.15,.46,2.45,.83,4.61Z"/><path class="cls-2" d="M223.11,130.94c.26,3.04-.79,5.41-3.99,5.84-3.42,.46-4.99-1.6-5.51-4.86-2.77-17.31-10.41-32.09-23.6-43.74-3.96-3.5-8.49-6.36-12.89-9.33-2.63-1.77-3.67-3.93-2.13-6.72,1.57-2.84,4.13-3.22,6.84-1.65,23.09,13.4,36.69,33.39,41.22,59.63,.05,.27,.05,.56,.06,.83Z"/><path class="cls-2" d="M189.54,137.67c-.74,.68-2.07,2.77-3.88,3.35-2.73,.88-4.93-.66-5.44-3.7-2.17-12.76-8.62-22.53-19.89-29.09-2.53-1.47-3.19-4-1.69-6.54,1.33-2.26,3.36-3.1,6.09-1.94,11.87,5.03,24.81,23.89,24.82,37.93Z"/></svg>